<svg width="64" height="50" viewBox="0 0 64 50" fill="none" xmlns="http://www.w3.org/2000/svg">
<path fill-rule="evenodd" clip-rule="evenodd" d="M16.2338 0H0V4.09091H5.99103V22.7273H10.2427V4.09091H16.2338V0ZM61.9601 0H48.0519V22.7273H62.3377V18.6364H52.2055V13.3766H61.5825V9.28571H52.2055V4.09091H61.9601V0ZM0 27.2727H16.2338V31.3636H10.2427V50H5.99103V31.3636H0V27.2727ZM52.2674 50V41.4286H56.8022C57.9519 41.4286 58.9525 41.2338 59.8041 40.8442C60.6557 40.4545 61.3583 39.9459 61.9119 39.3182C62.4867 38.6688 62.9125 37.9437 63.1893 37.1429C63.4873 36.3203 63.6364 35.487 63.6364 34.6429V33.8636C63.6364 33.0411 63.4873 32.2403 63.1893 31.461C62.9125 30.6602 62.4867 29.9567 61.9119 29.3507C61.3583 28.7229 60.6557 28.2251 59.8041 27.8571C58.9525 27.4675 57.9519 27.2727 56.8022 27.2727H48.0519V50H52.2674ZM56.3871 37.3377H52.2674V31.3636H56.3871C57.3238 31.3636 58.0583 31.6234 58.5906 32.1429C59.1441 32.6623 59.4209 33.3333 59.4209 34.1558V34.5455C59.4209 35.368 59.1441 36.039 58.5906 36.5584C58.0583 37.0779 57.3238 37.3377 56.3871 37.3377ZM38.961 0H43.5065V50H20.7792V0H24.6753V8.44156H38.961V0ZM38.9611 12.987H24.6754V27.2727H38.9611V12.987ZM38.9611 31.1688H24.6754V45.4545H38.9611V31.1688Z" fill="#111118"/>
</svg>
